{"title":"Junkhearts 2011 DVDRip XviD-NoGRP.","uid":6989423,"size":1277546276,"categoryP":"video","categoryS":"movies","magnet":"?xt=urn:btih:868605453f6eccb522dff89067a374cea3451ce4&amp;dn=Junkhearts+2011+DVDRip+XviD-NoGRP.&amp;tr=udp%3A%2F%2Ftracker.openbittorrent.com%3A80&amp;tr=udp%3A%2F%2Fopen.demonii.com%3A1337&amp;tr=udp%3A%2F%2Ftracker.coppersurfer.tk%3A6969&amp;tr=udp%3A%2F%2Fexodus.desync.com%3A6969","seeders":0,"leechers":0,"uploader":"moviesp2p","files":2,"time":1327660365,"description":" &lt;a href=&quot;http://www.imdb.com/title/tt1665746/&quot; rel=&quot;nofollow&quot; target=&quot;_NEW&quot;&gt;http://www.imdb.com/title/tt1665746/&lt;/a&gt;\n\nGeneral\nComplete name                    : Junkhearts.2011.DVDRip.XviD-NoGRP.avi\nFormat                           : AVI\nFormat/Info                      : Audio Video Interleave\nFormat profile                   : OpenDML\nFile size                        : 1.19 GiB\nDuration                         : 1h 35mn\nOverall bit rate                 : 1 788 Kbps\nMovie name                       : JUNKHEARTS_PAL.Title1.DVDRip\nWriting application              : Lavf52.78.4\nOriginal source form/Name        : JUNKHEARTS_PAL\n\nVideo\nID                               : 0\nFormat                           : MPEG-4 Visual\nFormat profile                   : Advanced Simple@L5\nFormat settings, BVOP            : 2\nFormat settings, QPel            : No\nFormat settings, GMC             : No warppoints\nFormat settings, Matrix          : Default (H.263)\nMuxing mode                      : Packed bitstream\nCodec ID                         : XVID\nCodec ID/Hint                    : XviD\nDuration                         : 1h 35mn\nBit rate                         : 1 326 Kbps\nWidth                            : 720 pixels\nHeight                           : 390 pixels\nDisplay aspect ratio             : 16:9\nFrame rate                       : 25.000 fps\nColor space                      : YUV\nChroma subsampling               : 4:2:0\nBit depth                        : 8 bits\nScan type                        : Progressive\nCompression mode                 : Lossy\nBits/(Pixel*Frame)               : 0.189\nStream size                      : 904 MiB (74%)\nWriting library                  : XviD 1.2.1 (UTC 2008-12-04)\n\nAudio\nID                               : 1\nFormat                           : AC-3\nFormat/Info                      : Audio Coding 3\nMode extension                   : CM (complete main)\nCodec ID                         : 2000\nDuration                         : 1h 35mn\nBit rate mode                    : Constant\nBit rate                         : 448 Kbps\nChannel(s)                       : 6 channels\nChannel positions                : Front: L C R, Side: L R, LFE\nSampling rate                    : 48.0 KHz\nBit depth                        : 16 bits\nCompression mode                 : Lossy\nStream size                      : 43.3 MiB (4%)\nAlignment                        : Aligned on interleaves\nInterleave, duration             : 226 ms (5.64 video frames)\nInterleave, preload duration     : 32 ms\n","torrent":{"xt":"urn:btih:868605453f6eccb522dff89067a374cea3451ce4","amp;dn":"Junkhearts+2011+DVDRip+XviD-NoGRP.","amp;tr":["udp%3A%2F%2Ftracker.openbittorrent.com%3A80","udp%3A%2F%2Fopen.demonii.com%3A1337","udp%3A%2F%2Ftracker.coppersurfer.tk%3A6969","udp%3A%2F%2Fexodus.desync.com%3A6969"],"infoHash":"868605453f6eccb522dff89067a374cea3451ce4","infoHashBuffer":{"type":"Buffer","data":[134,134,5,69,63,110,204,181,34,223,248,144,103,163,116,206,163,69,28,228]},"announce":[],"urlList":[]}}